<svg xmlns="http://www.w3.org/2000/svg" xmlns:xlink="http://www.w3.org/1999/xlink" width="16" height="16" viewBox="0 0 16 16">
    <defs>
        <path id="qbdbnmanya" d="M8 .1c.242.083.413.175.513.275l3.912 3.912c.1.1.192.271.275.513H8V.1zM6.8 0v4.8c0 .333.117.617.35.85.233.233.517.35.85.35h4.8v1.571c-.26-.047-.527-.071-.8-.071-2.485 0-4.5 2.015-4.5 4.5 0 1.742.99 3.253 2.437 4H2c-1.105 0-2-.895-2-2V2C0 .895.895 0 2 0h4.8zM12 8.5c1.933 0 3.5 1.567 3.5 3.5s-1.567 3.5-3.5 3.5-3.5-1.567-3.5-3.5 1.567-3.5 3.5-3.5zm0 1.5c-.276 0-.5.224-.5.5v1h-1c-.245 0-.45.177-.492.41L10 12c0 .276.224.5.5.5h1v1c0 .245.177.45.41.492L12 14c.276 0 .5-.224.5-.5v-1h1c.245 0 .45-.177.492-.41L14 12c0-.276-.224-.5-.5-.5h-1v-1c0-.245-.177-.45-.41-.492z"/>
    </defs>
    <g fill="none" fill-rule="evenodd">
        <g>
            <g>
                <g transform="translate(-27 -215) translate(0 43) translate(27 172)">
                    <mask id="1jh52knspb" fill="#fff">
                        <use xlink:href="#qbdbnmanya"/>
                    </mask>
                    <use fill="#000" fill-rule="nonzero" xlink:href="#qbdbnmanya"/>
                    <g mask="url(#1jh52knspb)">
                        <g>
                            <path fill="#9FA7BB" d="M0 0H75.25V75.25H0z" transform="translate(-30 -30)"/>
                        </g>
                    </g>
                </g>
            </g>
        </g>
    </g>
</svg>
