<svg xmlns="http://www.w3.org/2000/svg" xmlns:xlink="http://www.w3.org/1999/xlink" width="16" height="16" viewBox="0 0 16 16">
    <defs>
        <path id="y9l6036e8a" d="M3.012 7.885C3.503 7.83 4.52 7.755 5 8c.831.423 1.734 1.448 1.734 1.448L4.74 11.763C5.617 12.524 6.748 13 8 13c2.762 0 5-2.239 5-5 0-.473-.086-.922-.209-1.355-.407.475-1.232 1.084-1.232 1.084-.7-.078-.36.788-.36.788.295 1.916-.721 2.152-.721 2.152C9.093 12.092 8 9 8 9c-.256-1.721-.404-2.272-.404-2.272-1.773-1.108-.026-1.512.35-1.576h.011c.09-.013.068-.014-.011 0-.502.069-.406-.236-.71-.788-.307-.557-.682.094-.721 0-.038-.093-.215 1.02-.72 1.182-.505.162-.36-1.182-.36-1.182-.975 1.493-1.294 1.112-1.396.621-.616.812-1.002 1.808-1.027 2.9M8 15c-3.866 0-7-3.134-7-7s3.134-7 7-7 7 3.134 7 7-3.134 7-7 7"/>
    </defs>
    <g fill="none" fill-rule="evenodd">
        <g>
            <mask id="mi6rtc3ldb" fill="#fff">
                <use xlink:href="#y9l6036e8a"/>
            </mask>
            <use fill="#000" xlink:href="#y9l6036e8a"/>
            <g fill="#9FA7BB" mask="url(#mi6rtc3ldb)">
                <g>
                    <path d="M0 0H23V23H0z"/>
                </g>
            </g>
        </g>
    </g>
</svg>
