<svg xmlns="http://www.w3.org/2000/svg" xmlns:xlink="http://www.w3.org/1999/xlink" width="16" height="16" viewBox="0 0 16 16">
    <defs>
        <path id="646tikjzqa" d="M1.5 12.5c.828 0 1.5.672 1.5 1.5s-.672 1.5-1.5 1.5S0 14.828 0 14s.672-1.5 1.5-1.5zM15 13c.552 0 1 .448 1 1s-.448 1-1 1H6c-.552 0-1-.448-1-1s.448-1 1-1h9zM1.5 6.5C2.328 6.5 3 7.172 3 8s-.672 1.5-1.5 1.5S0 8.828 0 8s.672-1.5 1.5-1.5zM15 7c.552 0 1 .448 1 1s-.448 1-1 1H6c-.552 0-1-.448-1-1s.448-1 1-1h9zM1.5.5C2.328.5 3 1.172 3 2s-.672 1.5-1.5 1.5S0 2.828 0 2 .672.5 1.5.5zM15 1c.552 0 1 .448 1 1s-.448 1-1 1H6c-.552 0-1-.448-1-1s.448-1 1-1h9z"/>
    </defs>
    <g fill="none" fill-rule="evenodd">
        <g>
            <mask id="m5iouxu19b" fill="#fff">
                <use xlink:href="#646tikjzqa"/>
            </mask>
            <use fill="#000" xlink:href="#646tikjzqa"/>
            <g fill="#9FA7BB" mask="url(#m5iouxu19b)">
                <g>
                    <path d="M0 0H23V23H0z"/>
                </g>
            </g>
        </g>
    </g>
</svg>
